<svg width="24" height="24" viewBox="0 0 24 24" fill="none" xmlns="http://www.w3.org/2000/svg">
<path d="M1.91623 8.02009C1.91623 8.02009 1.561 1.41088 2.99711 1.08042C4.43321 0.749955 6.91045 3.12135 6.91045 3.12135L1.91623 8.02009Z" fill="black"/>
<path d="M15.4817 3.28176C15.4817 3.28176 18.133 0.641574 20.012 1.08141C21.8898 1.52125 20.4549 6.73997 20.4549 6.73997L15.4817 3.28176Z" fill="black"/>
<path d="M20.6684 20.1065C18.6783 21.6789 17.3474 22.1931 15.0852 22.8052C13.5754 23.2136 9.7727 23.1932 6.22934 21.767C3.74712 20.6811 2.77425 19.5003 2.30568 18.8568C1.89786 18.2971 1.06816 17.0551 1.02071 15.6965C0.951716 13.7186 1.00959 11.7892 1.91752 8.02267C2.82545 4.25495 6.91175 3.12393 6.91175 3.12393C11.3766 2.06971 15.0843 2.89819 16.3709 3.12393C17.6574 3.34966 21.3125 5.66406 21.6268 10.3021C21.6747 10.9956 22.4521 13.4627 22.5266 15.5348C22.5494 16.1703 22.5675 17.0164 22.2512 17.8843C21.8863 18.8853 21.0715 19.769 20.6684 20.1065Z" fill="#F07F2E" stroke="black" stroke-width="0.4" stroke-miterlimit="10"/>
<path d="M8.36147 10.7475C8.39302 10.6881 8.42925 10.6311 8.46781 10.5753C8.48651 10.5485 8.5052 10.5217 8.5239 10.495C8.53442 10.481 8.5461 10.4659 8.55662 10.4519C8.58233 10.4158 8.49936 10.5206 8.55194 10.4577C8.60569 10.3926 8.66061 10.3297 8.72137 10.2704C8.75292 10.239 8.78565 10.2087 8.81954 10.1796C8.83122 10.1692 8.89081 10.1215 8.84407 10.1575C8.79733 10.1936 8.8651 10.1436 8.88029 10.1331C8.91768 10.1075 8.95741 10.0831 8.99831 10.0621C9.01817 10.0516 9.03921 10.0423 9.06024 10.0319C9.10114 10.0109 8.98663 10.0551 9.06726 10.0307C9.11166 10.0167 9.15605 10.0063 9.20046 9.9958C9.26005 9.98067 9.12451 9.99813 9.18644 9.99813C9.21331 9.99813 9.2402 9.99464 9.26824 9.9958C9.29278 9.9958 9.31732 10.0004 9.34069 10.0004C9.38509 10.0004 9.26941 9.98067 9.31148 9.99696C9.32082 10.0005 9.33368 10.0004 9.3442 10.0039C9.3699 10.0109 9.3956 10.0167 9.42014 10.0249C9.43066 10.0284 9.44234 10.033 9.45286 10.0365C9.5218 10.0563 9.41314 10.0109 9.44703 10.0342C9.50428 10.0726 9.57088 10.1017 9.62931 10.1401C9.64099 10.1482 9.65268 10.1564 9.66437 10.1657C9.60828 10.1226 9.66436 10.1668 9.67488 10.1773C9.70643 10.2064 9.73916 10.2343 9.76954 10.2646C9.92612 10.4205 10.0219 10.5566 10.1411 10.7486C10.2404 10.9081 10.4543 10.9709 10.6202 10.8743C10.7803 10.7812 10.8457 10.5578 10.7464 10.3972C10.3713 9.79566 9.80226 9.1871 9.02403 9.32324C8.55662 9.40469 8.19087 9.77239 7.92328 10.1389C7.86252 10.2215 7.80409 10.3076 7.75618 10.3972C7.66737 10.5636 7.71412 10.7766 7.88239 10.8743C8.04014 10.9639 8.27267 10.9139 8.36147 10.7475Z" fill="black"/>
<path d="M18.6007 10.2484C18.6311 10.1914 18.6662 10.1367 18.7024 10.0832C18.7199 10.0576 18.7375 10.032 18.7561 10.0064C18.7667 9.99242 18.7772 9.97845 18.7865 9.96449C18.8122 9.92958 18.7281 10.0355 18.7807 9.97379C18.8321 9.91212 18.8847 9.85161 18.9431 9.7946C18.9735 9.76434 19.005 9.73525 19.0378 9.70849C19.0494 9.69802 19.1079 9.65148 19.06 9.68872C19.0121 9.72595 19.0775 9.67591 19.0927 9.6666C19.1289 9.64217 19.1663 9.6189 19.2049 9.59796C19.2247 9.58748 19.2446 9.57817 19.2633 9.56887C19.3042 9.54792 19.1862 9.5933 19.2668 9.56887C19.3089 9.55607 19.3521 9.54559 19.3953 9.53512C19.4538 9.52115 19.317 9.53861 19.3778 9.53745C19.4035 9.53745 19.4292 9.53395 19.4561 9.53512C19.4795 9.53512 19.5028 9.53978 19.5262 9.53978C19.5706 9.53978 19.4526 9.51999 19.4935 9.53628C19.5028 9.53977 19.5145 9.53978 19.5239 9.54211C19.5484 9.54909 19.5729 9.5549 19.5963 9.56188C19.6068 9.56537 19.6174 9.57003 19.6279 9.57236C19.6956 9.59214 19.5858 9.54559 19.6185 9.5677C19.6734 9.60494 19.7365 9.6317 19.7926 9.6701C19.8043 9.67824 19.8148 9.68638 19.8253 9.69453C19.7657 9.64915 19.8207 9.69221 19.8324 9.70268C19.8627 9.73061 19.8943 9.75737 19.9235 9.78646C20.0766 9.93889 20.1584 10.0576 20.2776 10.2472C20.3769 10.4066 20.5907 10.4695 20.7566 10.3729C20.9167 10.2798 20.9822 10.0564 20.8828 9.89583C20.5194 9.31403 19.9691 8.72876 19.2165 8.86024C18.7643 8.93937 18.4126 9.29426 18.1532 9.648C18.0948 9.72712 18.0399 9.80972 17.9931 9.89583C17.9043 10.0622 17.951 10.2752 18.1193 10.3729C18.2794 10.466 18.5119 10.416 18.6007 10.2484Z" fill="black"/>
<path d="M10.6222 13.7718L6.99634 13.6555" stroke="black" stroke-width="0.4" stroke-miterlimit="10"/>
<path d="M10.6823 15.0162L7.5343 15.4816" stroke="black" stroke-width="0.4" stroke-miterlimit="10"/>
<path d="M20.174 13.2346L23.7998 13.1182" stroke="black" stroke-width="0.4" stroke-miterlimit="10"/>
<path d="M20.1146 14.4751L23.2626 14.9394" stroke="black" stroke-width="0.4" stroke-miterlimit="10"/>
<path d="M14.9868 14.6354C14.9868 14.6354 16.7408 17.0534 18.2248 14.5912" stroke="black" stroke-width="0.4" stroke-miterlimit="10"/>
<path d="M16.6202 12.8287V15.5596" stroke="black" stroke-width="0.4" stroke-miterlimit="10"/>
<path d="M16.5883 12.9516C17.3227 12.9516 17.9181 12.5338 17.9181 12.0184C17.9181 11.503 17.3227 11.0852 16.5883 11.0852C15.8539 11.0852 15.2585 11.503 15.2585 12.0184C15.2585 12.5338 15.8539 12.9516 16.5883 12.9516Z" fill="black"/>
<path d="M4.94019 11.6311C6.11922 10.4152 2.35076 7.86341 2.07265 7.75403C2.06097 7.74938 1.00117 12.5249 1.05535 15.4C1.06801 16.0715 1.19556 16.7705 1.19556 16.7705C1.41641 16.9659 1.56085 17.5957 3.21312 16.7917C4.13742 16.3414 4.31971 15.4244 3.47838 15.2476C1.85999 14.909 3.48305 14.5483 3.2178 13.9083C2.54824 12.2932 3.7004 12.9099 4.94019 11.6311Z" fill="black" stroke="black" stroke-width="0.4" stroke-miterlimit="10"/>
<path d="M20.9513 16.374C21.0881 14.9439 22.4302 15.3476 22.4302 15.3476C22.8769 17.958 21.3147 19.7312 20.1886 20.3518C19.9151 20.3518 19.6531 18.7559 20.2678 18.5523C20.8824 18.3486 20.8146 17.8041 20.9513 16.374Z" fill="black" stroke="black" stroke-width="0.4" stroke-miterlimit="10"/>
</svg>
